# xmcd
#
# Track frame offsets:
#	150
#	22467
#	43510
#	63151
#	97018
#	115463
#	134960
#	155125
#	170102
#	192513
#	208700
#	232475
#	253304
#	275981
#
# Disc length: 3865 seconds
#
# Revision: 0
# Processed by: cddbd v1.5.2PL0 Copyright (c) Steve Scherf et al.
# Submitted via: EZCDAudioConverter 7.1.0.1
#
DISCID=f60f170e
DTITLE=群星 - 唱世纪Ⅰ 滚石辉煌30周年 CD4 - 天作之合4／天下有情人
DYEAR=2002
DGENRE=
TTITLE0=齐豫／周华健 - 天下有情人
TTITLE1=李宗盛／林忆莲 - 当爱已成往事
TTITLE2=潘越云／李宗盛 - 旧爱新欢
TTITLE3=伍佰／陈升 - 爱你一万年
TTITLE4=任贤齐／李心洁 - 风暴
TTITLE5=成龙／苏慧伦 - 爱了就算
TTITLE6=苏慧伦／杜德伟 - 爱你让我勇敢
TTITLE7=辛晓琪／李宗盛 - 始终只爱你
TTITLE8=刘若英／光良 - 好久好久
TTITLE9=阿牛／锦锈二重唱 - 牵牛花
TTITLE10=莫文慰／李宗盛 - 遇见另一个自己
TTITLE11=巫奇／苏慧伦 - 有谁像你爱我
TTITLE12=周华健／成龙／李宗盛／黄耀明 - 在晴朗的天空下
TTITLE13=周华健／任贤齐／无印良品／BEYOND - Yellow Submarine
EXTD=
EXTT0=
EXTT1=
EXTT2=
EXTT3=
EXTT4=
EXTT5=
EXTT6=
EXTT7=
EXTT8=
EXTT9=
EXTT10=
EXTT11=
EXTT12=
EXTT13=
PLAYORDER=
